<?xml version="1.0" encoding="UTF-8" standalone="no"?><!DOCTYPE svg PUBLIC "-//W3C//DTD SVG 1.1//EN" "http://www.w3.org/Graphics/SVG/1.1/DTD/svg11.dtd"><svg width="100%" height="100%" viewBox="0 0 256 256" version="1.1" xmlns="http://www.w3.org/2000/svg" xmlns:xlink="http://www.w3.org/1999/xlink" xml:space="preserve" xmlns:serif="http://www.serif.com/" style="fill-rule:evenodd;clip-rule:evenodd;stroke-linejoin:round;stroke-miterlimit:2;"><rect id="logo" x="0" y="0" width="256" height="256" style="fill:none;"/><g id="logo1" serif:id="logo"><circle cx="128" cy="128" r="121" style="fill:#1a1a1a;"/><path d="M73.154,33.004c-33.939,19.594 -54.846,55.807 -54.846,94.996c-0,60.541 49.151,109.692 109.692,109.692c60.541,0 109.692,-49.151 109.692,-109.692c0,-39.189 -20.907,-75.402 -54.846,-94.996l-21.938,37.998c20.363,11.757 32.907,33.484 32.907,56.998c0,36.325 -29.49,65.815 -65.815,65.815c-36.325,0 -65.815,-29.49 -65.815,-65.815c-0,-23.514 12.544,-45.241 32.907,-56.998l-21.938,-37.998Z" style="fill:#f2f2f2;"/><path d="M170.902,103.231c-8.85,-15.327 -25.204,-24.769 -42.902,-24.769c-27.341,-0 -49.538,22.197 -49.538,49.538c-0,27.341 22.197,49.538 49.538,49.538c17.698,0 34.052,-9.442 42.902,-24.769l-21.451,-12.384c-4.425,7.663 -12.602,12.384 -21.451,12.384c-13.671,0 -24.769,-11.098 -24.769,-24.769c-0,-13.671 11.098,-24.769 24.769,-24.769c8.849,-0 17.026,4.721 21.451,12.384l21.451,-12.384Z" style="fill:#0ff;"/><text x="115.98px" y="141.793px" style="font-family:'FiraCode-Regular', 'Fira Code', monospace;font-size:39.065px;fill:#f2f2f2;">#</text></g></svg>